<?xml version="1.0" encoding="utf-8"?>
<!-- Generator: Adobe Illustrator 25.2.0, SVG Export Plug-In . SVG Version: 6.00 Build 0)  -->
<svg version="1.1" id="Layer_1" xmlns="http://www.w3.org/2000/svg" xmlns:xlink="http://www.w3.org/1999/xlink" x="0px" y="0px"
	 viewBox="0 0 200 100" style="enable-background:new 0 0 200 100;" xml:space="preserve">
<style type="text/css">
	.st0{fill:none;stroke:#000000;stroke-miterlimit:10;}
	.st1{fill:none;stroke:#006837;stroke-miterlimit:10;}
	.st2{fill:#006837;}
	.st3{fill:none;stroke:#9E005D;stroke-miterlimit:10;}
	.st4{fill:none;stroke:#1B1464;stroke-miterlimit:10;}
	.st5{fill:#1B1464;}
	.st6{fill:none;}
	.st7{font-family:'MyriadPro-Regular';}
	.st8{font-size:4px;}
</style>
<g>
	<g>
		<line class="st0" x1="25.5" y1="10.6" x2="25.5" y2="89.5"/>
		<g>
			<polygon points="23.8,12.6 25.5,10.9 27.2,12.6 27.2,11.2 25.5,9.5 23.8,11.2 			"/>
		</g>
	</g>
</g>
<g>
	<g>
		<line class="st0" x1="99.4" y1="89.5" x2="25.5" y2="89.5"/>
		<g>
			<polygon points="97.4,87.8 99.1,89.5 97.4,91.2 98.8,91.2 100.5,89.5 98.8,87.8 			"/>
		</g>
	</g>
</g>
<g>
	<g>
		<line class="st1" x1="68.7" y1="53.2" x2="25.5" y2="89.5"/>
		<g>
			<polygon class="st2" points="65.3,52.2 75.5,47.5 69.1,56.7 			"/>
		</g>
	</g>
</g>
<circle class="st3" cx="76" cy="47" r="15.5"/>
<g>
	<g>
		<line class="st4" x1="86.2" y1="47.5" x2="75" y2="47.5"/>
		<g>
			<polygon class="st5" points="85,45.8 91.5,47.5 85,49.2 			"/>
		</g>
	</g>
</g>
<rect x="30" y="63.7" class="st6" width="22" height="4.3"/>
<text transform="matrix(1 0 0 1 30 66.5078)" class="st2 st7 st8">Circle Center</text>
<rect x="75.7" y="41.3" class="st6" width="16.4" height="5.7"/>
<text transform="matrix(1 0 0 1 75.6611 44.1396)" class="st5 st7 st8">Radius</text>
</svg>
